<svg xmlns="http://www.w3.org/2000/svg" viewBox="0 0 400 300" data-imageid="digital-nomad-outline" imageName="Digital Nomad" class="illustrations_image" style="width: 174px;"><g id="_37_digital_nomad_outline" data-name="#37_digital_nomad_outline"><path d="M206.85,160.94c-.42,9.58-4.21,23.67-9.2,23.95-8.67.47-20.32-35.47-31.35-35.47H128.64c-7.51,0-13.59,6.93-13.59,15.47v38.88L129.64,225h47.69V192.88c5.32,5.59,11.92,9.59,19.94,9.59.44,0,.89,0,1.34,0,23.53-1.29,25.63-36.73,25.79-40.77Z" fill="#ece3ce" class="target-color"/><path d="M177.33,226H129.64a1,1,0,0,1-.82-.43l-14.6-21.23a1,1,0,0,1-.17-.56V164.89c0-9.08,6.54-16.47,14.59-16.47H166.3c6.37,0,12.41,10.06,18.26,19.79,4.63,7.71,9.42,15.68,12.91,15.68h.12c3.28-.18,7.73-10.83,8.26-23a1,1,0,0,1,1-1l17.56.72a1,1,0,0,1,1,1c-.16,4.13-2.33,40.39-26.73,41.73-.47,0-.94,0-1.4,0-6.78,0-13.14-2.75-18.94-8.19V225A1,1,0,0,1,177.33,226Zm-47.16-2h46.16V192.88a1,1,0,0,1,1.72-.69c5.86,6.16,12.33,9.28,19.22,9.28.42,0,.85,0,1.29,0,21.31-1.17,24.38-31.92,24.79-38.81L207.79,162c-.57,8.49-4,23.57-10.09,23.91-4.72.29-9.41-7.58-14.86-16.65-5.3-8.82-11.3-18.82-16.54-18.82H128.64c-6.94,0-12.59,6.49-12.59,14.47v38.57Z" fill="#093f68"/><path d="M213.31,176.9h-5.56a1,1,0,0,1-1-1V150.41a1,1,0,0,1,1-1h5.56a6.76,6.76,0,0,1,6.75,6.75v14A6.76,6.76,0,0,1,213.31,176.9Zm-4.56-2h4.56a4.75,4.75,0,0,0,4.75-4.75v-14a4.75,4.75,0,0,0-4.75-4.75h-4.56Z" fill="#093f68"/><path d="M183.11,146.31h24.64a0,0,0,0,1,0,0v26.9a4.43,4.43,0,0,1-4.43,4.43H187.53a4.43,4.43,0,0,1-4.43-4.43v-26.9A0,0,0,0,1,183.11,146.31Z" fill="#fff"/><path d="M203.32,178.64H187.53a5.42,5.42,0,0,1-5.42-5.42V146.31a1,1,0,0,1,1-1h24.64a1,1,0,0,1,1,1v26.91A5.43,5.43,0,0,1,203.32,178.64Zm-19.21-31.33v25.91a3.42,3.42,0,0,0,3.42,3.42h15.79a3.43,3.43,0,0,0,3.43-3.42V147.31Z" fill="#093f68"/><rect x="147.37" y="153.13" width="10.92" height="59.56" fill="#ffbc0e"/><path d="M158.29,213.69H147.37a1,1,0,0,1-1-1V153.13a1,1,0,0,1,1-1h10.92a1,1,0,0,1,1,1v59.56A1,1,0,0,1,158.29,213.69Zm-9.92-2h8.92V154.13h-8.92Z" fill="#093f68"/><path d="M147.37,146.84h10.92a0,0,0,0,1,0,0v6.29a4.64,4.64,0,0,1-4.64,4.64H152a4.64,4.64,0,0,1-4.64-4.64v-6.29a0,0,0,0,1,0,0Z" fill="#ffc9b0"/><path d="M153.66,158.77H152a5.65,5.65,0,0,1-5.64-5.64v-6.29a1,1,0,0,1,1-1h10.92a1,1,0,0,1,1,1v6.29A5.64,5.64,0,0,1,153.66,158.77Zm-5.29-10.93v5.29a3.64,3.64,0,0,0,3.64,3.64h1.65a3.64,3.64,0,0,0,3.63-3.64v-5.29Z" fill="#093f68"/><ellipse cx="181.12" cy="117.51" rx="8.19" ry="9.15" fill="#ffc9b0"/><path d="M181.12,127.66c-5.07,0-9.19-4.55-9.19-10.15s4.12-10.14,9.19-10.14,9.18,4.55,9.18,10.14S186.18,127.66,181.12,127.66Zm0-18.29c-4,0-7.19,3.65-7.19,8.14s3.22,8.15,7.19,8.15,7.18-3.66,7.18-8.15S185.08,109.37,181.12,109.37Z" fill="#093f68"/><path d="M118.25,94.09c-.53,9.14-.55,19,2.33,27.33,4.93,14.39,17.84,28,31.92,28a28.76,28.76,0,0,0,26.57-16.62,35.15,35.15,0,0,0,3.41-15.4v-28c0-.07-13.57-3.09-13.57-3.15Z" fill="#ffc9b0"/><path d="M152.5,150.42c-11.45,0-26.42-9.85-32.87-28.68-3-8.75-2.89-18.92-2.38-27.71a1,1,0,0,1,.85-.93l50.65-7.85a1,1,0,0,1,.51,0c.47.13,3.87.9,6.62,1.53,7.6,1.73,7.6,1.73,7.6,2.56v28A36.47,36.47,0,0,1,180,133.23,29.83,29.83,0,0,1,152.5,150.42ZM119.2,95c-.45,8.41-.48,18,2.32,26.14,4.54,13.25,16.94,27.33,31,27.33a27.88,27.88,0,0,0,25.67-16.06,34.49,34.49,0,0,0,3.31-15V90.17c-1.23-.3-3.85-.89-6-1.39C171.88,88,170,87.54,169,87.23Z" fill="#093f68"/><path d="M167.09,125.55c-3.63-1.26-9-1-14.25,1.64-6.94,3.43-6,9.69-11.4,7.81a19,19,0,0,1-9.61-7.2c-2.87-4.43-2-10.34-2.14-15.42a14.83,14.83,0,0,0-.83-5.3,7.49,7.49,0,0,0-6.88-4.45c-10.21.19-6.41,14-5.69,20.08h4.41l-.12,3.6a33.59,33.59,0,0,0,31.92,23.11,28.76,28.76,0,0,0,26.57-16.62,34,34,0,0,1-4.09.48c-3.91.14-1.9-3.23-5-6.09A8.07,8.07,0,0,0,167.09,125.55Z" fill="#725858"/><path d="M152.5,150.42a34.47,34.47,0,0,1-32.87-23.79.9.9,0,0,1,0-.36l.09-2.56h-3.38a1,1,0,0,1-1-.88c-.09-.81-.24-1.76-.41-2.8-.81-5.12-1.93-12.15,1.23-15.91a7.41,7.41,0,0,1,5.85-2.49,8.48,8.48,0,0,1,7.82,5.06,15.56,15.56,0,0,1,.91,5.66c0,1.14,0,2.34,0,3.5,0,4-.1,8.21,2,11.41a17.88,17.88,0,0,0,9.1,6.8c2.3.79,2.92-.06,4.42-2.14a16.28,16.28,0,0,1,6.2-5.63c5.06-2.5,10.82-3.14,15-1.68a9.32,9.32,0,0,1,3.22,1.84,8.21,8.21,0,0,1,2.34,4.13c.42,1.42.51,1.76,2,1.71a33.29,33.29,0,0,0,4-.48,1,1,0,0,1,1.07,1.42A29.83,29.83,0,0,1,152.5,150.42Zm-30.92-24.27a32.49,32.49,0,0,0,30.92,22.27,27.82,27.82,0,0,0,24.77-14.34c-.86.11-1.61.18-2.26.2-3,.11-3.52-1.69-3.95-3.14a6.25,6.25,0,0,0-1.77-3.22,7.31,7.31,0,0,0-2.53-1.42h0c-3.72-1.29-8.89-.68-13.48,1.58a14.15,14.15,0,0,0-5.47,5c-1.53,2.12-3,4.13-6.69,2.85A19.94,19.94,0,0,1,131,128.34c-2.4-3.7-2.34-8.18-2.29-12.51,0-1.19,0-2.32,0-3.41a14,14,0,0,0-.76-5,6.51,6.51,0,0,0-5.94-3.84,5.42,5.42,0,0,0-4.36,1.77c-2.57,3.07-1.54,9.57-.78,14.32.11.71.22,1.38.3,2h3.54a1,1,0,0,1,.72.31,1,1,0,0,1,.28.73Z" fill="#093f68"/><ellipse cx="144.4" cy="113.39" rx="2.96" ry="2.96" fill="#093f68"/><circle cx="172.93" cy="113.39" r="2.96" fill="#093f68"/><path d="M158.28,121.61a17.75,17.75,0,0,1-2.9-.24,1,1,0,0,1-.81-1.15,1,1,0,0,1,1.16-.82,14,14,0,0,0,4.31.06c.13-.91-1-4-2.49-6.91a1,1,0,0,1,.42-1.35,1,1,0,0,1,1.35.43c1,2,3.37,6.85,2.51,8.78a1.69,1.69,0,0,1-1.12,1A10.39,10.39,0,0,1,158.28,121.61Z" fill="#093f68"/><path d="M136.39,105.65a2,2,0,0,1-.09-4l14.12-.63a2,2,0,0,1,2.09,1.91A2,2,0,0,1,150.6,105l-14.12.63Z" fill="#093f68"/><path d="M161.86,105.14a2,2,0,0,1-.16-4l14.1-1.1a2,2,0,0,1,.31,4L162,105.13Z" fill="#093f68"/><path d="M124.89,111.83s-7.82-5.41-12,1.55-.15,18.85,12.78,15.39Z" fill="#ffc9b0"/><path d="M121.24,130.4a10.48,10.48,0,0,1-8.74-4.11,12.27,12.27,0,0,1-.5-13.42,7.81,7.81,0,0,1,5.1-3.87c4.12-.88,8.19,1.89,8.36,2a1.05,1.05,0,0,1,.43.78l.75,16.95a1,1,0,0,1-.74,1A18.29,18.29,0,0,1,121.24,130.4Zm-2.46-19.58a5.49,5.49,0,0,0-1.27.14,5.89,5.89,0,0,0-3.8,2.94,10.38,10.38,0,0,0,.39,11.19c2.19,2.92,5.9,3.94,10.5,2.9l-.69-15.59A10.91,10.91,0,0,0,118.78,110.82Z" fill="#093f68"/><path d="M155.55,133.47l11-.13s-1,9-5.55,9.58S155.55,133.47,155.55,133.47Z" fill="#fff"/><path d="M160.66,144a3.75,3.75,0,0,1-2.43-.9c-2.94-2.35-3.61-8.76-3.67-9.49a1,1,0,0,1,.25-.76,1,1,0,0,1,.73-.33l11-.14a1,1,0,0,1,.76.33,1,1,0,0,1,.25.78c-.05.4-1.14,9.81-6.42,10.47A2.89,2.89,0,0,1,160.66,144Zm-4-9.49c.33,2.15,1.18,5.74,2.79,7a1.83,1.83,0,0,0,1.43.43c2.67-.33,4-4.87,4.51-7.58Z" fill="#093f68"/><rect x="104.52" y="224.99" width="190.96" height="10.02" rx="4.66" fill="#f56132"/><path d="M290.83,236H109.17a5.66,5.66,0,0,1-5.65-5.65v-.71a5.67,5.67,0,0,1,5.65-5.66H290.83a5.67,5.67,0,0,1,5.65,5.66v.71A5.66,5.66,0,0,1,290.83,236ZM109.17,226a3.66,3.66,0,0,0-3.65,3.66v.71a3.66,3.66,0,0,0,3.65,3.65H290.83a3.66,3.66,0,0,0,3.65-3.65v-.71a3.66,3.66,0,0,0-3.65-3.66Z" fill="#093f68"/><rect x="191.08" y="217.57" width="36.26" height="7.42" fill="#70cc40"/><path d="M227.34,226H191.08a1,1,0,0,1-1-1v-7.42a1,1,0,0,1,1-1h36.26a1,1,0,0,1,1,1V225A1,1,0,0,1,227.34,226Zm-35.26-2h34.26v-5.42H192.08Z" fill="#093f68"/><rect x="227.34" y="217.57" width="49.09" height="7.42" fill="#70cc40"/><path d="M276.43,226H227.34a1,1,0,0,1-1-1v-7.42a1,1,0,0,1,1-1h49.09a1,1,0,0,1,1,1V225A1,1,0,0,1,276.43,226Zm-48.09-2h47.09v-5.42H228.34Z" fill="#093f68"/><polygon points="276.43 217.57 227.34 217.57 240.1 172.66 289.19 172.66 276.43 217.57" fill="#70cc40"/><path d="M276.43,218.57H227.34a1,1,0,0,1-.79-.4,1,1,0,0,1-.17-.87l12.76-44.91a1,1,0,0,1,1-.73h49.09a1,1,0,0,1,.8.4,1,1,0,0,1,.16.88l-12.76,44.9A1,1,0,0,1,276.43,218.57Zm-47.76-2h47l12.19-42.91h-47Z" fill="#093f68"/><path d="M177.33,211.1l1.71-.72c3.81-1.59,12.86-5.3,15.54-5.75,3.42-.57,9.89.38,10.65,0s6.47,6,6.66,8.06-7,4.31-8.94,3a54.88,54.88,0,0,0-5.13-3s-4.38,9.64-17.51,8.59" fill="#ffc9b0"/><path d="M182.25,222.36c-.65,0-1.33,0-2-.08a1,1,0,0,1-.92-1.08,1,1,0,0,1,1.08-.92c12.22,1,16.35-7.64,16.52-8a1,1,0,0,1,.58-.53,1,1,0,0,1,.79.06,54.21,54.21,0,0,1,5.24,3c.58.4,2.76.27,5-.57,1.68-.64,2.36-1.32,2.41-1.53-.13-1.3-4.26-6.27-5.64-7.09a17.7,17.7,0,0,1-3.49,0,37.39,37.39,0,0,0-7,0c-1.79.3-7.51,2.42-15.31,5.68l-1.71.72a1,1,0,1,1-.78-1.84l1.72-.72c4.73-2,13.07-5.37,15.75-5.81a38,38,0,0,1,7.48,0,26,26,0,0,0,3,.08,1.43,1.43,0,0,1,1.26.16c1.68.93,6.56,6.46,6.77,8.73.09,1-.58,1.94-2,2.77-2.3,1.34-6.65,2.42-8.49,1.13a48,48,0,0,0-4.17-2.47C196.75,216.37,192.05,222.36,182.25,222.36Zm23.43-16.83Z" fill="#093f68"/><path d="M136.7,164.5v33.21A8.25,8.25,0,0,0,145,206h37.58v19H131.91a16.86,16.86,0,0,1-16.86-16.86V164.89" fill="#ece3ce" class="target-color"/><path d="M182.54,226H131.91a17.88,17.88,0,0,1-17.86-17.86V164.89a1,1,0,0,1,2,0v43.24A15.87,15.87,0,0,0,131.91,224h49.63V207H145a9.26,9.26,0,0,1-9.26-9.25V164.5a1,1,0,0,1,2,0v33.21A7.26,7.26,0,0,0,145,205h37.58a1,1,0,0,1,1,1v19A1,1,0,0,1,182.54,226Z" fill="#093f68"/><rect x="213.4" y="151.83" width="12.88" height="4.52" rx="2.22" fill="#ffc9b0"/><path d="M224.06,157.35h-8.43a3.26,3.26,0,0,1,0-6.52h8.43a3.26,3.26,0,0,1,0,6.52Zm-8.43-4.52a1.23,1.23,0,0,0-1.23,1.22,1.25,1.25,0,0,0,1.23,1.3h8.43a1.23,1.23,0,0,0,1.23-1.22,1.25,1.25,0,0,0-1.23-1.3Z" fill="#093f68"/><rect x="204.63" y="156.78" width="12.88" height="4.52" rx="2.22" transform="translate(370.11 -52.02) rotate(90)" fill="#ffc9b0"/><path d="M211.11,166.49a3.24,3.24,0,0,1-3.3-3.23v-8.43a3.26,3.26,0,0,1,6.52,0v8.43A3.23,3.23,0,0,1,211.11,166.49Zm0-12.89a1.24,1.24,0,0,0-1.3,1.23v8.43a1.22,1.22,0,0,0,1.22,1.23,1.25,1.25,0,0,0,1.3-1.23v-8.43A1.23,1.23,0,0,0,211.11,153.6Z" fill="#093f68"/><rect x="213.4" y="156.78" width="12.88" height="4.52" rx="2.22" fill="#ffc9b0"/><path d="M224.06,162.31h-8.43a3.27,3.27,0,0,1,0-6.53h8.43a3.27,3.27,0,0,1,0,6.53Zm-8.43-4.53A1.23,1.23,0,0,0,214.4,159a1.25,1.25,0,0,0,1.23,1.3h8.43a1.23,1.23,0,0,0,1.23-1.23,1.25,1.25,0,0,0-1.23-1.3Z" fill="#093f68"/><rect x="213.4" y="161.74" width="12.88" height="4.52" rx="2.22" fill="#ffc9b0"/><path d="M224.06,167.26h-8.43a3.26,3.26,0,0,1,0-6.52h8.43a3.26,3.26,0,0,1,0,6.52Zm-8.43-4.52A1.23,1.23,0,0,0,214.4,164a1.24,1.24,0,0,0,1.23,1.3h8.43a1.22,1.22,0,0,0,1.23-1.22,1.25,1.25,0,0,0-1.23-1.3Z" fill="#093f68"/><rect x="213.4" y="166.7" width="12.88" height="4.52" rx="2.22" fill="#ffc9b0"/><path d="M224.06,172.22h-8.43a3.26,3.26,0,0,1,0-6.52h8.43a3.26,3.26,0,0,1,0,6.52Zm-8.43-4.52a1.22,1.22,0,0,0-1.23,1.22,1.25,1.25,0,0,0,1.23,1.3h8.43a1.23,1.23,0,0,0,1.23-1.22,1.24,1.24,0,0,0-1.23-1.3Z" fill="#093f68"/><path d="M177.33,193.88a1,1,0,0,1-1-1V171.22a1,1,0,0,1,2,0v21.66A1,1,0,0,1,177.33,193.88Z" fill="#093f68"/><path d="M131.09,67.68h31.86a18,18,0,0,1,18,18V96.12a0,0,0,0,1,0,0H113.08a0,0,0,0,1,0,0V85.69A18,18,0,0,1,131.09,67.68Z" transform="translate(-11.52 25.44) rotate(-9.52)" fill="#ece3ce" class="target-color"/><path d="M115.9,102.54a1,1,0,0,1-.58-.19,1,1,0,0,1-.41-.65l-1.72-10.28a19,19,0,0,1,15.6-21.9l31.42-5.27a19,19,0,0,1,21.9,15.61l1.72,10.29A1,1,0,0,1,183,91.3l-66.95,11.22ZM163.36,66a18.07,18.07,0,0,0-2.82.23l-31.42,5.27h0a17,17,0,0,0-14,19.6l1.56,9.3,65-10.9-1.56-9.3A17,17,0,0,0,163.36,66ZM129,70.51h0Z" fill="#093f68"/><path d="M115.9,102.54a1,1,0,0,1-.17-2l86.5-14.5a1,1,0,0,1,1.15.82,1,1,0,0,1-.82,1.15l-86.5,14.5Z" fill="#093f68"/><path d="M192.28,140.57a4.68,4.68,0,0,0,.09-4.45c-.24-.45-.56-.87-.8-1.32a5.07,5.07,0,0,1,.1-5" fill="#fff"/><path d="M192.28,141.57a1,1,0,0,1-.5-.14,1,1,0,0,1-.37-1.36,3.62,3.62,0,0,0,.07-3.48c-.11-.21-.24-.41-.37-.62a7.92,7.92,0,0,1-.42-.69,6,6,0,0,1,.13-6,1,1,0,0,1,1.37-.35,1,1,0,0,1,.34,1.38,4.1,4.1,0,0,0-.09,4c.11.2.23.39.35.57s.32.51.46.77a5.65,5.65,0,0,1-.1,5.41A1,1,0,0,1,192.28,141.57Z" fill="#dfeaef"/><path d="M199.28,140.57a4.66,4.66,0,0,0,.09-4.45c-.24-.45-.55-.87-.8-1.32a5.09,5.09,0,0,1,.11-5" fill="#fff"/><path d="M199.28,141.57a1,1,0,0,1-.5-.14,1,1,0,0,1-.36-1.36,3.64,3.64,0,0,0,.07-3.48c-.12-.21-.25-.41-.38-.62s-.29-.45-.42-.69a6,6,0,0,1,.13-6,1,1,0,1,1,1.71,1,4.1,4.1,0,0,0-.08,4,5.43,5.43,0,0,0,.35.57,8.57,8.57,0,0,1,.45.77,5.65,5.65,0,0,1-.1,5.41A1,1,0,0,1,199.28,141.57Z" fill="#dfeaef"/><path d="M258.27,202.17a6.22,6.22,0,1,1,6.22-6.22A6.23,6.23,0,0,1,258.27,202.17Zm0-10.44a4.22,4.22,0,1,0,4.22,4.22A4.22,4.22,0,0,0,258.27,191.73Z" fill="#093f68"/><path d="M258.27,190.73s.31-3.58,3.35-3.52" fill="#fff"/><path d="M258.27,191.73h-.09a1,1,0,0,1-.91-1.08c.14-1.54,1.21-4.43,4.27-4.43h.1a1,1,0,0,1,1,1,1,1,0,0,1-1,1h-.05c-2,0-2.28,2.5-2.29,2.6A1,1,0,0,1,258.27,191.73Z" fill="#093f68"/><path d="M246.25,127.58h36.49a3.88,3.88,0,0,1,3.88,3.87v20.89a3.88,3.88,0,0,1-3.88,3.87H255.45l-6.13,8.84v-8.84h-3.07a3.87,3.87,0,0,1-3.87-3.87V131.45A3.87,3.87,0,0,1,246.25,127.58Z" fill="#fff"/><path d="M249.32,166.05a1,1,0,0,1-.3-.05,1,1,0,0,1-.7-.95v-7.84h-2.07a4.88,4.88,0,0,1-4.87-4.87V131.46a4.88,4.88,0,0,1,4.87-4.88h36.49a4.89,4.89,0,0,1,4.88,4.88v20.88a4.88,4.88,0,0,1-4.88,4.87H256l-5.83,8.41A1,1,0,0,1,249.32,166.05Zm-3.07-37.47a2.88,2.88,0,0,0-2.87,2.88v20.88a2.87,2.87,0,0,0,2.87,2.87h3.07a1,1,0,0,1,1,1v5.64l4.31-6.21a1,1,0,0,1,.82-.43h27.29a2.87,2.87,0,0,0,2.88-2.87V131.46a2.88,2.88,0,0,0-2.88-2.88Z" fill="#dfeaef"/><path d="M264.69,131.78a16.54,16.54,0,0,0-6.21,1.09,15.43,15.43,0,0,0-4.62,2.78c-.53.46-1,1-1.53,1.46a1.68,1.68,0,0,0,2.3,2.43c.51-.45,1-.95,1.49-1.39a12.67,12.67,0,0,1,15.7-.55,17.8,17.8,0,0,1,2.19,2,2,2,0,0,0,1.26.72,1.73,1.73,0,0,0,1.61-.79,1.6,1.6,0,0,0-.12-1.91,18.21,18.21,0,0,0-3.84-3.32,15.66,15.66,0,0,0-4.08-1.85A15.22,15.22,0,0,0,264.69,131.78Z" fill="#dfeaef"/><path d="M263.94,137.88a9.92,9.92,0,0,0-3.9,1,10.13,10.13,0,0,0-2.84,2.06,8.67,8.67,0,0,0-.65.71,1.82,1.82,0,0,0,2.6,2.52,20,20,0,0,1,1.71-1.49,5.73,5.73,0,0,1,4.74-.87,6.41,6.41,0,0,1,3.15,1.9,6,6,0,0,0,1.14,1,1.77,1.77,0,0,0,2.21-.37,1.8,1.8,0,0,0,.12-2.32,14.06,14.06,0,0,0-1.19-1.25,10.45,10.45,0,0,0-1.86-1.45,9.48,9.48,0,0,0-3.59-1.27C265,137.93,264.49,137.92,263.94,137.88Z" fill="#dfeaef"/><path d="M261.5,148a2.94,2.94,0,1,0,5.87-.29,2.94,2.94,0,0,0-5.87.29Z" fill="#dfeaef"/></g></svg>